<mxfile host="app.diagrams.net" modified="2020-12-17T08:37:45.079Z" agent="5.0 (Windows NT 10.0; Win64; x64) AppleWebKit/537.36 (KHTML, like Gecko) Chrome/87.0.4280.88 Safari/537.36" etag="K8SJHMmKb5pG2L9WGLyd" version="14.0.4" type="github">
  <diagram id="yqx7a5qtMC4BNbOzOPNT" name="Page-1">
    <mxGraphModel dx="1078" dy="611" grid="1" gridSize="10" guides="1" tooltips="1" connect="1" arrows="1" fold="1" page="1" pageScale="1" pageWidth="827" pageHeight="1169" math="0" shadow="0">
      <root>
        <mxCell id="0" />
        <mxCell id="1" parent="0" />
        <mxCell id="u0Fh3HNOJ9qbBpjLv5XC-1" value="商城" style="rounded=0;whiteSpace=wrap;html=1;" vertex="1" parent="1">
          <mxGeometry x="80" y="130" width="120" height="60" as="geometry" />
        </mxCell>
        <mxCell id="u0Fh3HNOJ9qbBpjLv5XC-2" value="我的" style="rounded=0;whiteSpace=wrap;html=1;" vertex="1" parent="1">
          <mxGeometry x="290" y="130" width="120" height="60" as="geometry" />
        </mxCell>
        <mxCell id="u0Fh3HNOJ9qbBpjLv5XC-3" value="网络&lt;br&gt;（网络请求的响应实体类也放在这里）" style="rounded=0;whiteSpace=wrap;html=1;" vertex="1" parent="1">
          <mxGeometry x="160" y="280" width="120" height="60" as="geometry" />
        </mxCell>
        <mxCell id="u0Fh3HNOJ9qbBpjLv5XC-4" value="base" style="rounded=0;whiteSpace=wrap;html=1;" vertex="1" parent="1">
          <mxGeometry x="140" y="410" width="500" height="60" as="geometry" />
        </mxCell>
      </root>
    </mxGraphModel>
  </diagram>
</mxfile>
